<svg height="512" viewBox="0 0 512 512" width="512" xmlns="http://www.w3.org/2000/svg"><g id="Flat"><path d="m353.416 377.433v-34.866l-31.222-11.1c-4.2-10.129-6.316-15.246-10.511-25.375l14.226-29.929-24.654-24.653-29.928 14.226-25.376-10.511-11.103-31.225h-34.865l-11.1 31.222-25.383 10.511-29.928-14.226-24.65 24.653 14.226 29.929c-4.195 10.129-6.315 15.246-10.511 25.375l-31.221 11.1v34.866l31.221 11.1c4.2 10.129 6.316 15.246 10.511 25.375l-14.226 29.935 24.654 24.653 29.924-14.226 25.376 10.511 11.107 31.222h34.865l11.1-31.222 25.376-10.511 29.928 14.226 24.654-24.653-14.226-29.929c4.195-10.129 6.315-15.246 10.511-25.375zm-136 46.567a64 64 0 1 1 64-64 64 64 0 0 1 -64 64z" fill="#ef5249"/><path d="m488 185.433v-34.866l-31.222-11.1-10.511-25.375 14.226-29.932-24.653-24.653-29.928 14.226-25.376-10.511-11.103-31.222h-34.866l-11.1 31.222-25.379 10.511-29.928-14.226-24.653 24.653 14.226 29.929-10.511 25.375-13.994 10.271c0 17.41-17.228 18.287-17.228 35.7l31.222 11.1 10.511 25.375-14.226 29.93 24.653 24.653 29.928-14.226 25.376 10.511 11.103 31.222h34.866l11.1-31.222 25.376-10.511 29.928 14.226 24.653-24.653-14.226-29.929 10.511-25.375zm-136 46.567a64 64 0 1 1 64-64 64 64 0 0 1 -64 64z" fill="#88bf40"/><path d="m296 161.433v-34.866l-31.222-11.1-10.511-25.378 14.226-29.929-24.653-24.653-29.928 14.226-25.376-10.511-11.103-31.222h-34.866l-11.1 31.222-25.379 10.511-29.928-14.226-24.653 24.653 14.226 29.929-10.511 25.375-31.222 11.103v34.866l31.222 11.1 10.511 25.375-14.226 29.932 24.653 24.653 29.928-14.226 25.376 10.511 11.103 31.222h34.866l11.1-31.222 25.376-10.511 29.928 14.226 24.653-24.653-14.226-29.929 10.511-25.375zm-136 46.567a64 64 0 1 1 64-64 64 64 0 0 1 -64 64z" fill="#ffc119"/><path d="m376 456v-48l-43.029-43.029a16.972 16.972 0 0 1 -4.971-12 16.971 16.971 0 0 1 16.971-16.971 16.972 16.972 0 0 1 12 4.971l19.029 19.029v-88a16 16 0 0 1 16-16 16 16 0 0 1 16 16v40h34.745a45.255 45.255 0 0 1 45.255 45.255 45.255 45.255 0 0 1 -13.255 32l-18.745 18.745v48z" fill="#f5be9a"/><path d="m360 432h112v72h-112z" fill="#0093ba"/><path d="m432 456h16v16h-16z" fill="#7ecce6"/></g></svg>