<?xml version="1.0" encoding="iso-8859-1"?>
<!-- Generator: Adobe Illustrator 19.0.0, SVG Export Plug-In . SVG Version: 6.00 Build 0)  -->
<svg version="1.1" id="Layer_1" xmlns="http://www.w3.org/2000/svg" xmlns:xlink="http://www.w3.org/1999/xlink" x="0px" y="0px"
	 viewBox="0 0 512 512" style="enable-background:new 0 0 512 512;" xml:space="preserve">
<circle style="fill:#008E8E;" cx="224.549" cy="224.549" r="224.549"/>
<g>
	<path style="fill:#0CA7A6;" d="M502.3,455.468l-97.288-97.288C391.794,376,376,391.794,358.18,405.012l97.288,97.288
		c12.933,12.933,33.901,12.933,46.832,0C515.233,489.369,515.233,468.401,502.3,455.468z"/>
	<path style="fill:#0CA7A6;" d="M224.549,0C100.534,0,0,100.534,0,224.549s100.534,224.549,224.549,224.549V0z"/>
</g>
<circle style="fill:#FEDFB5;" cx="224.549" cy="224.549" r="178.573"/>
<path style="fill:#FFF1D8;" d="M224.549,45.976c-98.624,0-178.573,79.95-178.573,178.573s79.949,178.573,178.573,178.573V45.976z"/>
<g>
	<rect x="118.669" y="195.835" style="fill:#FF969F;" width="51.712" height="134.583"/>
	<rect x="198.698" y="157.257" style="fill:#FF969F;" width="51.712" height="173.171"/>
	<rect x="278.716" y="118.669" style="fill:#FF969F;" width="51.712" height="211.749"/>
</g>
<g>
	<rect x="118.669" y="247.275" style="fill:#E21B4E;" width="51.712" height="83.143"/>
	<rect x="198.698" y="208.697" style="fill:#E21B4E;" width="51.712" height="121.731"/>
	<rect x="278.716" y="170.12" style="fill:#E21B4E;" width="51.712" height="160.308"/>
</g>
<g>
</g>
<g>
</g>
<g>
</g>
<g>
</g>
<g>
</g>
<g>
</g>
<g>
</g>
<g>
</g>
<g>
</g>
<g>
</g>
<g>
</g>
<g>
</g>
<g>
</g>
<g>
</g>
<g>
</g>
</svg>
